<svg width="199" height="98" xmlns="http://www.w3.org/2000/svg">
 <title>valueprops-top-sprite</title>

 <g>
  <title>background</title>
  <rect fill="none" id="canvas_background" height="402" width="152" y="-1" x="-1"/>
 </g>
 <g>
  <title>Layer 1</title>
  <path stroke="#000" id="svg_1" d="m7.367134,35.937834l33.899528,0.013241l-1.100048,1.66329l-31.686445,-0.039722l-1.113037,-1.63681l0.000001,0zm0.232961,-22.125533l33.446547,-0.039722l0.970656,1.706282l-35.400816,0.013241l0.983613,-1.679801zm-3.300766,11.086806l40.022176,-0.039722l-0.051733,1.706283l-39.944559,-0.026481l-0.025884,-1.640081zm40.055307,0.158257c0,11.295995 -8.984083,20.485402 -20.028828,20.485402c-11.039973,0 -20.022382,-9.191068 -20.022382,-20.485402c0,-11.294389 8.984032,-20.483794 20.022382,-20.483794c11.044747,-0.001659 20.028828,9.189405 20.028828,20.483794zm-20.027255,-22.125535c-11.921246,0 -21.622272,9.924585 -21.622272,22.123871c0,12.200948 9.701028,22.125532 21.622272,22.125532c11.927737,0 21.627144,-9.924584 21.627144,-22.125532c0,-12.199285 -9.699406,-22.123871 -21.627144,-22.123871zm6.067816,22.125535c0,12.070711 -3.196637,20.485402 -6.067816,20.485402c-2.867931,0 -6.064517,-8.414691 -6.064517,-20.485402c0,-12.074034 3.19501,-20.483794 6.064517,-20.483794c2.869559,-0.001659 6.067816,8.40976 6.067816,20.483794zm-6.067816,-22.125535c-4.980173,0 -7.667654,11.399823 -7.667654,22.123871c0,10.727322 2.687482,22.125532 7.667654,22.125532c4.980224,0 7.672576,-11.399867 7.672576,-22.125532c-0.001623,-10.724048 -2.692352,-22.123871 -7.672576,-22.123871zm14.210797,22.125535c0,11.295995 -6.377142,20.485402 -14.210797,20.485402c-7.832028,0 -14.205925,-9.191068 -14.205925,-20.485402c0,-11.294389 6.373898,-20.483794 14.205925,-20.483794c7.833655,-0.001659 14.210797,9.189405 14.210797,20.483794zm-14.210797,-22.125535c-8.714974,0 -15.809061,9.924585 -15.809061,22.123871c0,12.200948 7.094087,22.125532 15.809061,22.125532c8.718221,0 15.810734,-9.924584 15.810734,-22.125532c0,-12.199285 -7.092513,-22.123871 -15.810734,-22.123871z" stroke-width="1.5" fill="#000000"/>
  <path stroke="#007fff" id="svg_2" d="m7.117133,84.187181l33.89953,0.01324l-1.10005,1.6633l-31.68644,-0.03973l-1.11304,-1.63681l0,0zm0.23297,-22.12553l33.44654,-0.03972l0.97066,1.70628l-35.40082,0.01324l0.98362,-1.6798zm-3.30077,11.08681l40.02218,-0.03972l-0.05174,1.70628l-39.94456,-0.02648l-0.02588,-1.64008zm40.05531,0.15825c0,11.296 -8.98409,20.48541 -20.02883,20.48541c-11.03998,0 -20.02238,-9.19107 -20.02238,-20.48541c0,-11.29439 8.98403,-20.48379 20.02238,-20.48379c11.04474,-0.00166 20.02883,9.1894 20.02883,20.48379zm-20.02726,-22.12553c-11.92124,0 -21.62227,9.92458 -21.62227,22.12387c0,12.20095 9.70103,22.12553 21.62227,22.12553c11.92774,0 21.62715,-9.92458 21.62715,-22.12553c0,-12.19929 -9.69941,-22.12387 -21.62715,-22.12387zm6.06782,22.12553c0,12.07071 -3.19664,20.48541 -6.06782,20.48541c-2.86793,0 -6.06452,-8.4147 -6.06452,-20.48541c0,-12.07403 3.19501,-20.48379 6.06452,-20.48379c2.86956,-0.00166 6.06782,8.40976 6.06782,20.48379zm-6.06782,-22.12553c-4.98017,0 -7.66765,11.39982 -7.66765,22.12387c0,10.72732 2.68748,22.12553 7.66765,22.12553c4.98022,0 7.67258,-11.39987 7.67258,-22.12553c-0.00163,-10.72405 -2.69236,-22.12387 -7.67258,-22.12387zm14.2108,22.12553c0,11.296 -6.37714,20.48541 -14.2108,20.48541c-7.83203,0 -14.20592,-9.19107 -14.20592,-20.48541c0,-11.29439 6.37389,-20.48379 14.20592,-20.48379c7.83366,-0.00166 14.2108,9.1894 14.2108,20.48379zm-14.2108,-22.12553c-8.71497,0 -15.80906,9.92458 -15.80906,22.12387c0,12.20095 7.09409,22.12553 15.80906,22.12553c8.71822,0 15.81073,-9.92458 15.81073,-22.12553c0,-12.19929 -7.09251,-22.12387 -15.81073,-22.12387z" stroke-width="1.5" fill="#007fff"/>
  <path stroke="#000000" id="svg_3" d="m74.668758,7.377152c-11.983159,0 -21.697257,7.174073 -21.697257,16.022344c0,3.023545 1.148412,5.849187 3.124218,8.262615l-3.124218,6.744535l8.699007,-2.19701c3.624957,2.007197 8.116344,3.213351 12.998249,3.213351c11.983152,0 21.697276,-7.174099 21.697276,-16.023491s-9.714124,-16.022344 -21.697276,-16.022344l0.000002,0zm-3.558468,22.17535l-3.623501,3.564898l-9.965068,-9.813412l9.963581,-9.815711l3.624988,3.573052l-6.340106,6.242659l6.340106,6.248514zm10.958882,3.560254l-3.622011,-3.569559l6.341853,-6.241497l-6.341853,-6.243863l3.622011,-3.56956l9.965082,9.80642l-9.965082,9.818059z" stroke-width="1.5" fill="#000000"/>
  <path stroke="#00ff7f" id="svg_4" d="m74.66876,57.376476c-11.98316,0 -21.69726,7.17408 -21.69726,16.02235c0,3.02354 1.14841,5.84918 3.12422,8.26261l-3.12422,6.74454l8.69901,-2.19701c3.62495,2.00719 8.11634,3.21335 12.99825,3.21335c11.98315,0 21.69727,-7.1741 21.69727,-16.02349s-9.71412,-16.02235 -21.69727,-16.02235l0,0zm-3.55847,22.17535l-3.6235,3.5649l-9.96507,-9.81341l9.96358,-9.81571l3.62499,3.57305l-6.34011,6.24266l6.34011,6.24851zm10.95888,3.56026l-3.62201,-3.56956l6.34185,-6.2415l-6.34185,-6.24386l3.62201,-3.56956l9.96508,9.80642l-9.96508,9.81806z" stroke-width="1.5" fill="#00ff7f"/>
  <path stroke="#000000" id="svg_5" d="m156.204193,38.330766c2.250536,-0.01752 4.501071,-0.035042 6.751607,-0.05256c0.014818,-2.771165 0.029633,-5.542331 0.044449,-8.313493c2.239784,0 4.47957,0 6.719356,0c0,-2.788167 0,-5.576334 0,-8.364499c2.297142,0 4.594282,0 6.891424,0c0,-2.720162 0,-5.440324 0,-8.160486c2.26878,0 4.53756,0 6.806343,0c0,-2.72016 0,-5.440324 0,-8.160486c3.374812,0 6.749625,0 10.124437,0c0,1.360081 0,2.720162 0,4.080243c-2.240426,0 -4.480842,0 -6.721268,0c0,2.754164 0,5.508327 0,8.262492c-2.268779,0 -4.537559,0 -6.806343,0c0,2.754165 0,5.508329 0,8.262492c-2.268783,0 -4.53756,0 -6.806343,0c0,2.754164 0,5.508329 0,8.262488c-2.297142,0 -4.594283,0 -6.891423,0c0,2.788168 0,5.576334 0,8.364498c-3.403173,0 -6.806344,0 -10.209516,0c0.151714,-1.351579 -0.258638,-2.875634 0.097275,-4.180688l0,-0.000002z" stroke-width="1.5" fill="#000000"/>
  <path stroke="#ff5656" id="svg_6" d="m153.95422,87.580102c2.25054,-0.01752 4.50107,-0.03504 6.75161,-0.05256c0.01482,-2.77117 0.02963,-5.54233 0.04445,-8.31349c2.23978,0 4.47957,0 6.71936,0c0,-2.78817 0,-5.57634 0,-8.3645c2.29714,0 4.59428,0 6.89142,0c0,-2.72016 0,-5.44033 0,-8.16049c2.26878,0 4.53756,0 6.80634,0c0,-2.72016 0,-5.44032 0,-8.16048c3.37482,0 6.74963,0 10.12444,0c0,1.36008 0,2.72016 0,4.08024c-2.24043,0 -4.48084,0 -6.72127,0c0,2.75416 0,5.50833 0,8.26249c-2.26878,0 -4.53756,0 -6.80634,0c0,2.75417 0,5.50833 0,8.26249c-2.26878,0 -4.53756,0 -6.80634,0c0,2.75417 0,5.50833 0,8.26249c-2.29715,0 -4.59429,0 -6.89143,0c0,2.78817 0,5.57634 0,8.3645c-3.40317,0 -6.80634,0 -10.20951,0c0.15171,-1.35158 -0.25864,-2.87563 0.09727,-4.18069l0,0z" stroke-width="1.5" fill="#ff5656"/>
 </g>
</svg>